#!OML:ASF E:/inclinewalkrobotboard/Project1/Captureday1/Session1/subject1.ASF
:FULLY-SPECIFIED
:DEGREES
376
root 0 0 0 15.657730312921116 41.746668030946935 -0.4054050946333625
lowerback -10.883264981757431 -4.576939627724741 -4.569781521033171
upperback -11.71973934890993 -5.701206631948412 8.94429178437949
thorax -5.421527927621177 -2.1561855392845475 12.239522501813667
lowerneck -2.9974621498256075 -9.800899705474249 -8.494339602747072
upperneck 32.753169613840534 -12.30526141463608 0.29069947388916084
head 11.89879873081447 -6.365628176651 -0.10312836564880445
rclavicle -3.5986763371374204E-15 4.072074540480453E-15
rhumerus 164.3657544498186 6.328025168087763 -191.3501192475302
rradius 21.012507158840656
rwrist 75.5486524471538
rhand -16.890476423799893 8.206421180638017
rfingers 7.125020000000003
rthumb 9.31772522727252 -21.57261492005351
lclavicle 2.690458307133608E-15 -5.6623724005820674E-15
lhumerus 81.40551498894325 30.92954791601978 17.224692320475068
lradius 53.02084528014747
lwrist -16.43420568083512
lhand -6.341582451943327 10.648106363996767
lfingers 7.125020000000001
lthumb 19.45214085337204 39.20160046106455
rfemur 162.57788314125617 -217.4184695053462 -187.24869354277325
rtibia 66.64596697132954
rfoot -49.90042245871524 -24.564059118495237
rtoes 55.97579130451558
lfemur -88.39219969816644 22.034917118984055 -54.50314202486814
ltibia 73.13922336630756
lfoot -13.481878367177629 34.3522991677749
ltoes 9.52243174812553
377
root 0 0 0 15.792543321579888 41.90989817078318 -0.5089654488034494
lowerback -10.910071711584852 -4.560906249837725 -4.532714796508343
upperback -11.738213195474973 -5.678574222141261 8.954406810978607
thorax -5.421016932145923 -2.149242404980365 12.228269671530782
lowerneck -2.9905023559278145 -9.812121689935974 -8.499213287482739
upperneck 32.7620829998748 -12.3168800532153 0.2674378419259842
head 11.901577620215177 -6.372538354955077 -0.1107292540102156
rclavicle -3.7041114474988E-15 4.044577129137257E-15
rhumerus 164.3841564787347 6.179639668682686 -191.91446666170262
rradius 20.396163600993383
rwrist 76.7556936316951
rhand -16.98884650434885 8.16895654646613
rfingers 7.125020000000005
rthumb 9.220114932341017 -21.64274201341947
lclavicle 2.4058146122405613E-15 -5.732782788330892E-15
lhumerus 82.5059939077137 31.2224884710121 17.026672125797948
lradius 52.749974653416665
lwrist -16.409955087624684
lhand -6.400324902907553 10.81578998748964
lfingers 7.125019999999999
lthumb 19.397954580638938 39.390407435953875
rfemur 161.98585095699755 -216.92813241274445 -187.0877399255069
rtibia 66.06571958662282
rfoot -50.368944702477485 -24.525971252289075
rtoes 56.84925082257591
lfemur -88.45872430117305 22.33437596139187 -53.75302273503189
ltibia 73.89282942354656
lfoot -14.133812348770316 33.8756321541724
ltoes 9.793074474551155
378
root 0 0 0 15.88798765859998 41.992891104609384 -0.5758364596655046
lowerback -10.929516652997208 -4.547544154716107 -4.509562228032365
upperback -11.750795056112754 -5.659969318335512 8.95755482009951
thorax -5.420844223394525 -2.1425840513990195 12.217592778443649
lowerneck -2.989594258496898 -9.818222477497146 -8.499939016931357
upperneck 32.76548931520803 -12.323422096113623 0.2519823218850883
head 11.902748996576323 -6.376344666221593 -0.11581479711033205
rclavicle -3.842760198968079E-15 4.024472209202313E-15
rhumerus 164.28507428115518 6.08003814325696 -192.3839588926019
rradius 19.83305010145627
rwrist 77.82760147680614
rhand -17.056042941803792 8.133076231262224
rfingers 7.125020000000006
rthumb 9.152469717209037 -21.70314981809021
lclavicle 2.1614059689394665E-15 -5.7343160231146575E-15
lhumerus 83.3228615632895 31.474103457043995 16.883244572742665
lradius 52.477304960561796
lwrist -16.43289798046031
lhand -6.511488809539258 10.960512575486582
lfingers 7.1250199999999975
lthumb 19.292724825715577 39.56194286223575
rfemur 161.42453852700604 -216.45453251213942 -186.90744379594264
rtibia 65.58532969278204
rfoot -50.7130087172377 -24.53880395657439
rtoes 57.61187542611707
lfemur -88.50074375492267 22.52937797765012 -53.17112246816136
ltibia 74.45145551301556
lfoot -14.730130625875981 33.52424027771515
ltoes 10.018895715613032
379
root 0 0 0 15.959586229518754 42.0357825592441 -0.6211608039908647
lowerback -10.944726182856837 -4.536397307006066 -4.494792455936367
upperback -11.759904667229698 -5.6445921329240845 8.957432207216844
thorax -5.420626071835468 -2.136554515129043 12.208323672139741
lowerneck -2.9912122946123825 -9.82151197794558 -8.498553427481589
upperneck 32.767120499899576 -12.32709456999723 0.2406678782727698
head 11.903404272167588 -6.3784424681091245 -0.11955542926118823
rclavicle -3.978923570451512E-15 4.0021707241614535E-15
rhumerus 164.142437332127 6.004950322388282 -192.76459841915914
rradius 19.335401868852706
rwrist 78.74374474645053
rhand -17.097548196522943 8.095378062456874
rfingers 7.125020000000007
rthumb 9.109693205278534 -21.75895208846632
lclavicle 1.963514415816682E-15 -5.70103596598546E-15
lhumerus 83.92184114332544 31.68878693002357 16.779604001996784
lradius 52.21380124612993
lwrist -16.488610028252026
lhand -6.656403709271605 11.08403322584751
lfingers 7.125019999999996
lthumb 19.15456660906655 39.715436417135
rfemur 160.90246687422172 -216.01043466011882 -186.7208738136971
rtibia 65.17560907557882
rfoot -50.988206840185086 -24.5756269168342
rtoes 58.26963065651603
lfemur -88.5253725387731 22.652758377202836 -52.73091403361308
ltibia 74.85811592250461
lfoot -15.260584259802314 33.274881327889965
ltoes 10.210584059605608
380
root 0 0 0 16.013248552464574 42.05776296481048 -0.6518966815252067
lowerback -10.956257925083056 -4.527242371853399 -4.485482624275411
upperback -11.766328035180262 -5.632025244392506 8.955685284592818
thorax -5.420331039201871 -2.1312972312160134 12.200541003794626
lowerneck -2.9938126314445253 -9.823151139760324 -8.496046534198264
upperneck 32.76832180516739 -12.32898228352946 0.2317199104423726
head 11.90392626640971 -6.379526410838051 -0.12252944747736105
rclavicle -4.098433051171512E-15 3.977546415574729E-15
rhumerus 163.99019374148605 5.941618790778065 -193.0658031810713
rradius 18.904921087063926
rwrist 79.51325050209002
rhand -17.120718484194406 8.05713636325821
rfingers 7.125020000000008
rthumb 9.084828614526495 -21.810553602308225
lclavicle 1.810894611181132E-15 -5.6487893214958035E-15
lhumerus 84.35434467463124 31.870866945246192 16.706367763009837
lradius 51.964676954494024
lwrist -16.5645302638924
lhand -6.819986745296495 11.189299929853092
lfingers 7.125019999999995
lthumb 18.998119441883386 39.85186395111235
rfemur 160.42580416500678 -215.60357427950856 -186.537122985137
rtibia 64.81628360714132
rfoot -51.234853901807156 -24.614545544774167
rtoes 58.8285406150369
lfemur -88.53917966336348 22.728398968669055 -52.40489985109967
ltibia 75.15099165858476
lfoot -15.713056044357721 33.10253585556204
ltoes 10.370968811231837
381
root 0 0 0 16.051722278337074 42.06972973603567 -0.6718664475518796
lowerback -10.964011128732864 -4.519888570595464 -4.479844568019173
upperback -11.770353624286289 -5.6219331676977555 8.953155636143162
thorax -5.420026016802195 -2.1268402313949144 12.194097100035172
lowerneck -2.996610798546387 -9.823820241878323 -8.492973303782195
upperneck 32.76955456938671 -12.329704176705748 0.22410392447525584
head 11.904428553313341 -6.379999001379437 -0.12507955818086147
rclavicle -4.197123564944923E-15 3.953295385992081E-15
rhumerus 163.8421577495308 5.8853419383736565 -193.29939247171257
rradius 18.538104560618194
rwrist 80.15467592658126
rhand -17.131855809420916 8.020583358091201
rfingers 7.125020000000009
rthumb 9.07186714776412 -21.85701163383186
lclavicle 1.6994872095982969E-15 -5.585248221989982E-15
lhumerus 84.66101692084678 32.02415750221087 16.65590130217896
lradius 51.732418262908396
lwrist -16.651086527824145
lhand -6.990355547529533 11.27955120216253
lfingers 7.125019999999993
lthumb 18.834910153539017 39.9729559723304
rfemur 159.99713368244153 -215.23723946568592 -186.36185056772993
rtibia 64.49406377864548
rfoot -51.478265625286646 -24.641293821951674
rtoes 59.29638080496623
lfemur -88.54727017962193 22.77303164977878 -52.16883234787625
ltibia 75.36048717603182
lfoot -16.079431069175158 32.98552941744869
ltoes 10.500411039174278
382
root 0 0 0 16.076802682282803 42.07821395538916 -0.6835102785084004
lowerback -10.967887841430098 -4.51413666840325 -4.476703275285415
upperback -11.772165932762356 -5.613996574707133 8.950305587152647
thorax -5.419790003763379 -2.12314544765509 12.188789382295184
lowerneck -2.999187037375778 -9.82394352834002 -8.48966490710886
upperneck 32.77093474540375 -12.329646345600331 0.21718130043608763
head 11.90492345459218 -6.380110125057204 -0.1274190082706259
rclavicle -4.275712596997388E-15 3.932023320000685E-15
rhumerus 163.70292995541197 5.835616009966113 -193.47826640690164
rradius 18.22903399014943
rwrist 80.6874264717948
rhand -17.135614517865005 7.987552839381151
rfingers 7.12502000000001
rthumb 9.066339116653404 -21.89740744253829
lclavicle 1.6235351065140967E-15 -5.514886342950886E-15
lhumerus 84.87420993157103 32.15214697589685 16.62163355010966
lradius 51.51810411916611
lwrist -16.741431885061857
lhand -7.158674543840562 11.357736821165107
lfingers 7.125019999999992
lthumb 18.67350571999924 40.08058131960673
rfemur 159.61580143455998 -214.91132578011968 -186.19806075761971
rtibia 64.20039668585515
rfoot -51.73200078195188 -24.648540646838224
rtoes 59.68252130982647
lfemur -88.55312501125326 22.798038407304297 -52.00284107145893
ltibia 75.50945505042391
lfoot -16.357193676659982 32.90692167800053
ltoes 10.599243871566985
383
root 0 0 0 16.09009491474791 42.08696306096118 -0.6885724414768433
lowerback -10.967990219759283 -4.509778263390759 -4.475270049325731
upperback -11.771972212868349 -5.607905540833365 8.947390599136199
thorax -5.4196832968214235 -2.120139124161895 12.184420385244778
lowerneck -3.001331793657906 -9.823784209899962 -8.486318553387932
upperneck 32.772446130820626 -12.329060130115 0.21057358960369132
head 11.905390926729197 -6.38001590966321 -0.12967389809585428
rclavicle -4.336993278999931E-15 3.9154574337185455E-15
rhumerus 163.5731894871709 5.793470423119569 -193.61500892703097
rradius 17.970823740705068
rwrist 81.12899558347974
rhand -17.135204559718527 7.959172433492244
rfingers 7.12502000000001
rthumb 9.065137783537079 -21.931256293192234
lclavicle 1.5765798255301624E-15 -5.4408078976312106E-15
lhumerus 85.01938761079346 32.258186032614034 16.598234931578478
lradius 51.32195920981542
lwrist -16.830906883124193
lhand -7.31892266415298 11.42626599153354
lfingers 7.125019999999991
lthumb 18.519744693856143 40.17645831697124
rfemur 159.27902089624016 -214.62360723505344 -186.0469792737057
rtibia 63.92981262939122
rfoot -52.00143259194226 -24.633970549893967
rtoes 59.997083312474956
lfemur -88.55885374561106 22.810929222913806 -51.8912376665016
ltibia 75.61454405821951
lfoot -16.548956824454415 32.854280049580055
ltoes 10.668616510001835
